<?xml version="1.0" encoding="UTF-8"?>
<svg width="20px" height="20px" viewBox="0 0 20 20" version="1.1" xmlns="http://www.w3.org/2000/svg" xmlns:xlink="http://www.w3.org/1999/xlink">
    <title>African bank</title>
    <g id="African-bank" stroke="none" stroke-width="1" fill="none" fill-rule="evenodd">
        <g id="African-Bank-scaled-down-01" transform="translate(2.000000, 2.000000)">
            <path d="M8,15.54 C6.16597079,15.5829788 4.34534287,15.2174868 2.67,14.47 C2.26345539,14.281106 1.87798627,14.0498246 1.52,13.78 C1.38958263,13.6894218 1.27187152,13.5818002 1.17,13.46 C0.785288384,13.0803497 0.497233409,12.613975 0.33,12.1 C0.290406906,11.9520792 0.260345159,11.8017704 0.24,11.65 C0.180044915,11.1953012 0.180044915,10.7346988 0.24,10.28 C0.42900797,8.4864984 1.03146336,6.76128524 2,5.24 C2.954853,3.42198395 4.38585273,1.89765816 6.14,0.83 C4,3.05 3.32,8.12 3.92,10.18 C4.02500618,10.5618371 4.23249961,10.9076595 4.52,11.18 C5.52998498,11.9046428 6.75939324,12.257921 8,12.18 C9.25087848,12.2535618 10.4873652,11.8815529 11.49,11.13 C11.6907915,10.9198202 11.84124,10.6667932 11.93,10.39 C12.0998607,9.53883199 11.9801799,8.65530593 11.59,7.88 C13.59,10.81 14.49,14.93 9.36,15.44" id="Path" fill="#1D2F5E"></path>
            <path d="M8.34,4.47 C8.08251976,4.41880865 7.81748024,4.41880865 7.56,4.47 C7.56,4.47 6.2,4.72 4.92,6.93 C4.6910359,7.30129945 4.4968769,7.69296502 4.34,8.1 C4.34,4.77 6.06,0.1 8.83,0.45 C8.98467689,0.480036192 9.13558323,0.526984832 9.28,0.59 C9.69687374,0.763416535 10.0954963,0.977801753 10.47,1.23 C11.9422619,2.30728431 13.1495228,3.70606534 14,5.32 C14.9519261,6.83554094 15.5563992,8.54309192 15.77,10.32 C15.8200332,10.7719528 15.8200332,11.2280472 15.77,11.68 C15.7427945,11.8321558 15.7060554,11.9824519 15.66,12.13 C15.4989244,12.6473973 15.2140155,13.1176685 14.83,13.5 L14.71,13.62 C14.58,13.73 14.46,13.83 14.32,13.93 C13.8711186,14.2410424 13.3879417,14.4994079 12.88,14.7 C13.8812457,13.5331343 14.1474581,11.904995 13.57,10.48 C12.8,7.83 10.35,4.91 8.57,4.48" id="Path" fill="#88BC44"></path>
        </g>
    </g>
</svg>