<svg width="30" height="16" xmlns="http://www.w3.org/2000/svg">
  <g fill="none" fill-rule="evenodd">
    <path d="M0 0h30v16H0z"/>
    <path d="M2.857 14V9.22h4.606V6.995H2.857V4.234h5.07V2H0v12h2.857Zm9.115 0V6.533l4.2 7.467h2.84V2h-2.848v7.467L11.972 2H9.116v12h2.856Zm13.657 0c1.444-.011 2.533-.312 3.268-.902.735-.591 1.103-1.474 1.103-2.65 0-.649-.165-1.198-.496-1.649-.331-.45-.806-.758-1.425-.923.548-.208.963-.533 1.245-.972.283-.44.424-.97.424-1.59 0-1.078-.398-1.9-1.193-2.465C27.76 2.283 26.601 2 25.076 2h-4.257v12h4.81Zm-.464-6.997h-1.489v-2.77h1.4c.64 0 1.104.112 1.392.334.287.223.431.587.431 1.092 0 .44-.133.772-.399.998-.266.225-.71.34-1.335.346Zm.383 4.772h-1.872V8.898h2.002c.982.006 1.473.509 1.473 1.509 0 .434-.138.77-.415 1.01-.276.238-.673.358-1.188.358Z" fill="#191818" fill-rule="nonzero"/>
  </g>
</svg>
