<?xml version="1.0" encoding="UTF-8"?>
<svg width="45px" height="20px" viewBox="0 0 45 20" version="1.1" xmlns="http://www.w3.org/2000/svg" xmlns:xlink="http://www.w3.org/1999/xlink">
    <title>Visa - web New 2022</title>
    <g id="Visa---web-New-2022" stroke="none" stroke-width="1" fill="none" fill-rule="evenodd">
        <rect id="Rectangle" fill-opacity="0.01" fill="#FFFFFF" x="0" y="0" width="45" height="20"></rect>
        <path d="M22.3107778,4.22996316 L19.7044583,16.8032082 L16.5534028,16.8032082 L19.1599028,4.22996316 L22.3107778,4.22996316 Z M35.5691528,12.3485572 L37.2282778,7.62704454 L38.1830556,12.3485572 L35.5691528,12.3485572 Z M39.0851111,16.8032082 L42,16.8032082 L39.4565139,4.22996316 L36.7656944,4.22996316 C36.161375,4.22996316 35.651125,4.59298442 35.4243472,5.15242478 L30.6965,16.8032082 L34.0053611,16.8032082 L34.6625833,14.9256727 L38.7055833,14.9256727 L39.0851111,16.8032082 Z M30.8608056,12.6981608 C30.8741667,9.37953526 26.4140833,9.19672014 26.4451389,7.71425909 C26.4543472,7.2630915 26.8708889,6.78359782 27.7814306,6.66078929 C28.2337222,6.59985092 29.4772083,6.55307559 30.8891528,7.22377041 L31.4420139,4.5575768 C30.6838611,4.27319772 29.7077778,4 28.4942639,4 C25.3796806,4 23.1870139,5.70925615 23.1685972,8.15666796 C23.1489167,9.96655629 24.7334722,10.9762325 25.9278472,11.578162 C27.1552639,12.1946272 27.5678333,12.589329 27.5625972,13.1403833 C27.5544722,13.9845755 26.5830833,14.3563555 25.6770556,14.3710776 C24.0923194,14.396981 23.1729306,13.9296005 22.439875,13.5770152 L21.8687778,16.3319142 C22.6050833,16.6811451 23.9639444,16.9843461 25.3739028,17 C28.6840278,17 30.8499722,15.3116157 30.8608056,12.6981608 L30.8608056,12.6981608 Z M17.8077222,4.22996316 L12.7019722,16.8032082 L9.37036111,16.8032082 L6.85811111,6.7688757 C6.70536111,6.15073324 6.57283333,5.92468355 6.108625,5.66434439 C5.35209722,5.2401984 4.10084722,4.84214223 3,4.59522069 L3.07529167,4.22996316 L8.43725,4.22996316 C9.12065278,4.22996316 9.73544444,4.69939363 9.89054167,5.51171892 L11.217625,12.7879843 L14.4970556,4.22996316 L17.8077222,4.22996316 L17.8077222,4.22996316 Z" id="vbm_blu01" fill="#1434CB"></path>
    </g>
</svg>